<?xml version="1.0" encoding="utf-8"?>
<!-- Generator: Adobe Illustrator 18.1.1, SVG Export Plug-In . SVG Version: 6.00 Build 0)  -->
<svg version="1.1" id="Layer_1" xmlns="http://www.w3.org/2000/svg" xmlns:xlink="http://www.w3.org/1999/xlink" x="0px" y="0px"
	 viewBox="0 0 232.7 184.2" enable-background="new 0 0 232.7 184.2" xml:space="preserve">
<g opacity="0.2">
	<radialGradient id="Albemarle_County_2_" cx="102.9173" cy="93.9357" r="50.1822" gradientUnits="userSpaceOnUse">
		<stop  offset="0" style="stop-color:#C4A873"/>
		<stop  offset="0.5" style="stop-color:#AA863B"/>
		<stop  offset="1" style="stop-color:#8C6F2D"/>
	</radialGradient>
	
		<path id="Albemarle_County_1_" fill="url(#Albemarle_County_2_)" stroke="#FFFFFF" stroke-width="1.9454" stroke-linejoin="round" d="
		M68.5,54.7l1.3-2.2l0.8-0.8l0.8-0.3l0.5-1.5l0.4-0.2l1-0.2l0.6-0.8l0.5-1.1l0.6-0.2l1.4-0.1l2.4-1.4l0.5-0.3l1.1,0.9l0.5,0.3
		l0.5-0.3l1.6-1.4l0.1-0.3l-1.1-0.6l-0.3-0.4l0.4-0.8L82,41.9l0.4-0.5l1.2,0.6l4.2,1.8l9.9,4.2l18,7.2l6.3,2.5l4.3,1.2l4.9,1.5
		l19.5,8.9l-2.6,5l-4.5,7.9l-7.6,10.9l-27.4,39.5l-0.4,0.8v1l-0.6,0l-0.5,0.4l-0.2,0.6l0.3,1.6l0.1,1.7l-0.4,1.2l-0.5,0.6l-1.2,0.2
		l-1.9-0.1l-2.8-0.9l-1-0.1l-4.1,1.3l-2.2,0.4l-3.3,0l-0.8,0.5l-0.8,0.9l-1.6,0.8l-1.7,1.3l-1.3,1.7l-1.5-0.4l-0.9,0.4l-0.7-0.1
		l-0.4-0.5l-0.9-1.3l-1-0.5l-0.6-0.8l0-0.4l1.1-0.5l0.2-0.3v-1.2l0.5-0.3l1.1,0.4h0.5l0.2-0.3l-0.2-0.3l-1.6-2l-0.6-0.4l-1,0.2
		l-0.2-0.3l-0.1-0.4l1.3-0.7l0.2-0.3l-0.9-1.4l-2.3-6.9l-7-13.5L55.2,85.7l1.1-1.2l1.6-1.5l1.6-0.6l1.2-0.3l0.8-0.6l1.2-2.6l1.4-0.4
		l0.4-0.9L64.3,77l-0.1-1.2l0.4-1.2l-1.5-3.8l1.3-2.5l1.1-3.9l0.2-2.2l2-3.4l0.7-1.8L68.5,54.7z M112.2,85.2L111,84l0.8-1.8l-1-1.3
		l-2.1,0.3l-1.3,0.7l-1.2,0.8l-1,1l-1.3,2.7l-0.8,2.8l-0.1,1.7l0.7,1.5l1.1,0.2l3,0.3l0.6-1.4l2.6,0.7l1.4-2l0.9,0.1l0.4-0.4
		l0.1-0.9l-1.2-0.5l1.1-1.6l-0.4-2.7l-0.8,0.1L112.2,85.2z"/>
	<radialGradient id="Charlottesville_2_" cx="108.3391" cy="86.9279" r="5.7146" gradientUnits="userSpaceOnUse">
		<stop  offset="0" style="stop-color:#F7EAC7"/>
		<stop  offset="0.5" style="stop-color:#F2DB9C"/>
		<stop  offset="1" style="stop-color:#EAC54D"/>
	</radialGradient>
	<path id="Charlottesville_1_" fill="url(#Charlottesville_2_)" d="M112.2,85.2l0.2-0.9l0.8-0.1l0.4,2.7l-1.1,1.6l1.2,0.5l-0.1,0.9
		l-0.4,0.4l-0.9-0.1l-1.4,2l-2.6-0.7l-0.6,1.4l-3-0.3l-1.1-0.2l-0.7-1.5l0.1-1.7l0.8-2.8l1.3-2.7l1-1l1.2-0.8l1.3-0.7l2.1-0.3l1,1.3
		L111,84L112.2,85.2z"/>
	<linearGradient id="Fluvanna_County_2_" gradientUnits="userSpaceOnUse" x1="109.2528" y1="125.1561" x2="174.0036" y2="125.1561">
		<stop  offset="0" style="stop-color:#DBC79A"/>
		<stop  offset="0.5" style="stop-color:#C9AC68"/>
		<stop  offset="1" style="stop-color:#BE9C48"/>
	</linearGradient>
	
		<path id="Fluvanna_County_1_" fill="url(#Fluvanna_County_2_)" stroke="#FFFFFF" stroke-width="1.9454" stroke-linejoin="round" d="
		M137.1,94.8l2.3,1.6l4.8,2.3l5.4,1.8l0.3,0.2l1.2,2.4l1,1.1l1.6,0.9l1.6,0.4l1.9,0.1l0.4,0.1l1.4,0.9l3.1,1.8l4,2l7.8,3.8
		l-13.7,25.8l-1.3,5l-0.7-0.3l-0.7-0.1l-1.4,0.5l-1,0.7l-1.5,1.4l-1.9,1.3l-2.4,2.3l-1,1.4l-0.8,2.9l-0.7,0.4l-1,0.2l-2-0.9
		l-1.8-1.1l-1.4-1.4l-0.8-0.3l-3.4-0.8l-2.4-0.4l-2-0.7l-1.8-1.2l-1.2-0.9l-1.8-0.4l-4.7-0.5l-5.6-2.3l-3-1.9l-2.4-2.5l-1.4-3.6
		l-0.9-0.4v-1l0.4-0.8L137.1,94.8z"/>
	<linearGradient id="Greene_County_2_" gradientUnits="userSpaceOnUse" x1="84.1351" y1="29.1676" x2="139.9215" y2="29.1676">
		<stop  offset="0" style="stop-color:#999674"/>
		<stop  offset="0.5" style="stop-color:#737144"/>
		<stop  offset="1" style="stop-color:#5A5C2A"/>
	</linearGradient>
	<path id="Greene_County_1_" fill="url(#Greene_County_2_)" stroke="#FFFFFF" stroke-width="1.9454" stroke-linejoin="round" d="
		M110,12.3l0.6-1.6l1.1-0.9l-0.3-1.7l0.3-0.4l1.6-0.9l0.5-0.8l0.3-2.2l0.8-1.3l0.6-1.5l0.6,3l0.3,0.5l1.4,1.1l0.2,0.8L117.8,8
		l0.4,3.5l-0.4,1.7l-0.3,1.6l0.2,1.8l0.4,0.9l1.1,0.6l0.5,0.6l0.1,0.9l-0.8,3.3l0.1,0.5l1.4,0.9l1.1,1.4l0.9,2.4l1.4,0.9l0.5,1
		l1.3,0.9l1.1,1.2l1.1,0.3l1-0.2l0.1,0.2v0.9l0.8,1.8l-0.6,0.3l-0.3,0.6l0.3,0.5l0.5,0.5l0.7,0.4l0.8,0.3l0,1.8v0.2l0.4,0.2l0.6-0.9
		l1,0.4l0.9,1.2l2,0.6l0.6-0.3l1.2,0.3l0.4-0.7l0.4-0.3l0.8,0.1l0.6,0.6l-12,16.5l-4.3-1.2l-6.3-2.5l-18-7.2l-9.9-4.2l-4.2-1.8
		l-1.2-0.6l0.6-2.1l0.7-0.9l2.3-0.2l1-0.9l0.7-1l2.8-0.9l2.2-2.9l1.2-0.8l2.6-1.1l1.3-0.9l0.4-0.9v-1l0.3-0.9l1.8-2.2l0.5-0.3
		l1.5-0.8l0.3-0.3l0.5-1.5l1.5-2.9L108,16L110,12.3z"/>
	<linearGradient id="Louisa_County_2_" gradientUnits="userSpaceOnUse" x1="138.1459" y1="104.7189" x2="231.7208" y2="104.7189">
		<stop  offset="0" style="stop-color:#D0937A"/>
		<stop  offset="0.5" style="stop-color:#B25538"/>
		<stop  offset="1" style="stop-color:#A2311A"/>
	</linearGradient>
	<path id="Louisa_County_1_" fill="url(#Louisa_County_2_)" stroke="#FFFFFF" stroke-width="1.9454" stroke-linejoin="round" d="
		M190.3,71l0.6,0.2l0.5,0.1l0.7-0.3l0.6-0.1l1.1,0.6l1.2,0.1l1.7-0.3l0.4,0.1l0.9,0.9l1.2,0.4l1.2-0.4l0.5-0.1l2.2,0.9l1.9,0.3
		l0.4,0.3l0.7,0.6h0.9l0.6-0.2l0.6-0.8l0.5-0.1l3.4,3.5l0.6,1.4l0.6,0.4l2.4,0l1.1,0.5l0.4,0.7l-0.3,1.2l0.3,0.4l2.8,1.9l0.7,0.7
		l0.7-0.1l0.5-0.5l0.4,0.2l0.4,0.5l-0.1,2.4l-0.2,2l0.3,0.2l0.3-0.1l0.4-0.9l0.4-0.5h0.5l0.7,0.2l0.1,0.5l-0.1,0.9l0.3,0.3l1-0.2
		l0.3,0.2l0.2,0.5l1.2,1.2l1.7,0.2l1,0.8h0.9l-16.6,52.8l-5-3.9l-8.7-1l-0.6-0.4l-1.7-3.3l-0.7-2.6l-1-2.6l-4.5-7.3l-7-2.2l-2.1-3.3
		l-5.4-3.6L175,112l-7.8-3.8l-4-2l-3.1-1.8l-1.4-0.9l-0.4-0.1l-1.9-0.1l-1.6-0.4l-1.6-0.9l-1-1.1l-1.2-2.4l-0.3-0.2l-5.4-1.8
		l-4.8-2.3l-2.3-1.6l7.6-10.9l4.5-7.9l2.6-5l2.5-0.7l3.4,0l1-0.7l1.6-0.2l0.5-0.3l0.6-0.9l0.3,0l1.2,0.6l1.3,0.1l1.2-0.2l0.6-0.6
		l0.2-0.9l1.2-0.5h1.7l0.6,0.6l1.9,1.1l0.9,0.1l0.8,0.2l1.5,0.7l2.6,0.4l1.5-0.5l0.8-0.4l0.6,0l0.8,0.4l0.8,0.4l1.2-0.1l0.5,0.1
		l0.5,0.5l1.6,2l0.9,0.4l1.3-0.3L190.3,71z"/>
	<linearGradient id="Nelson_County_2_" gradientUnits="userSpaceOnUse" x1="0.9727" y1="134.3963" x2="80.0149" y2="134.3963">
		<stop  offset="0" style="stop-color:#698A91"/>
		<stop  offset="0.5393" style="stop-color:#335C64"/>
		<stop  offset="1" style="stop-color:#02383B"/>
	</linearGradient>
	<path id="Nelson_County_1_" fill="url(#Nelson_County_2_)" stroke="#FFFFFF" stroke-width="1.9454" stroke-linejoin="round" d="
		M3.2,114.8l3.3-1.1l1.4-0.1l0.7-0.4l0.5-0.5l2.1-0.1l0.8-0.2l1.9-1.5l1.2-0.6l0.7-0.1l3.4,0.4l0.2,0.3l0.2,2.5l0.7,0.9l5.6,1.9
		l0.6-0.1l0.8-0.4l4.8-5.3l2.9-4.1l0.6-0.4l1.7-0.1l1-0.1l0.9-0.9l2.3-0.1l0.7-0.6l0.1-1.7l1.4-3.2l-0.3-0.4l-1.4,0.3l-0.4-0.2
		L41.4,98l0.4-1.6l0.9-0.9l1.1-0.4l0.6-0.9l0.6-1.5l0.1-1.3l-0.1-1.4l1-1.4l2.7-0.3l1.9-1.6l1-1.2l13.6,28.6l7,13.5l2.3,6.9l0.9,1.4
		l-0.2,0.3l-1.3,0.7l0.1,0.4l0.2,0.3l1-0.2l0.6,0.4l1.6,2l0.2,0.3l-0.2,0.3h-0.5l-1.1-0.4l-0.5,0.3v1.2l-0.2,0.3l-1.1,0.5l0,0.4
		l0.6,0.8l1,0.5l0.9,1.3l0.4,0.5l0.7,0.1l0.9-0.4l1.5,0.4l-0.3,1l-0.5,1.3l-0.9,1.2l-0.3,1.1l0.3,0.7l0.9,1.4l0.8,1.3l-0.2,0.7
		l-1,0.6l-1.1,0.1l-0.5-0.3l-1.1-1.9l-1-0.9l-1.2-0.4l-0.8,0.1l-0.7,0.5v0.7l0.5,1.1l0.2,1.1l-0.3,0.7l-2.7,0.9l-1.2,0.9l-0.3,1.2
		l0.2,1.6l0.1,1.8l-0.6,0.9l-1.1,0.4l-6.6-0.7l-3.6-0.9l-1,0.2l-1.5,0.9l-1.3,1.1l-0.4,0.8l0.8,2.2l1.4,1.6l0.2,0.6l-0.8,0.9
		l-1.1,0.5l-1.6,1.2l-0.2,0.9l0.3,0.8l1.4,1.4l0.5,0.9v1.2L53,179l-0.6,0.9l-0.1,1.6l0.1,1.2l-0.4,0.5l-1.1,0l-1.2-0.7l-1.3-1.1
		l-0.9-0.2l-1.1,0.2l-0.4,0.3l-0.9-0.9l-0.8-0.2l-1.1,0.3l-0.6-0.3l-0.6-0.5l-1.1-0.3l-6.2-18.8l-1.1-1l-0.5-1.2l-0.4-2.9l-0.4-0.7
		l-1-0.6l-1.2-0.1l-0.5-0.4l-0.4-0.8l-0.3-0.7l-1.7-1.2l-1.5-0.3l-1.6-0.9l-1.5,0.1l-2-1.3l-1.8-0.2l-1.8-0.8l0.1-1.6l-0.3-1.1
		l0.2-3.6l-0.5-1.7l0.5-2.8l-0.1-0.4l-0.5-0.6l-2.6-1.7l-1.3,0.2l-1.9-0.2l-1.1-0.5l-0.2-0.5v-1L8.8,132l-1.5-0.9l-0.9-1.4l-0.4-0.3
		l-0.6,0.3L1,131.7l2.2-4.2l-0.1-3.4l1.4-2.3l0.9-0.7v-0.5l-0.8-1.1l0.1-1.1l-0.4-1.6l-0.7-1.3L3.2,114.8z"/>
</g>
</svg>
